<svg width="92" height="40" viewBox="0 0 92 40" fill="none" xmlns="http://www.w3.org/2000/svg">
<path d="M65.5547 20.4766C65.5547 23.0078 65.8203 24.2734 66.3516 24.2734L66.4453 24.3672H66.8672C67.6484 23.7578 68.0391 22.6562 68.0391 21.0625C68.0391 19.7656 67.6953 18.875 67.0078 18.3906H66.4922C65.8672 18.875 65.5547 19.5703 65.5547 20.4766Z" fill="#0F110C"/>
<path d="M7.80469 22.5625C7.91406 23.3438 8.16406 23.7344 8.55469 23.7344H8.625C9.17188 23.7344 10.0312 22.0859 11.2031 18.7891V18.7188L10.5234 18.5781H10.4766C9.22656 18.5781 8.33594 19.6562 7.80469 21.8125V22.5625Z" fill="#0F110C"/>
<path d="M38.5781 19.6328L39.0938 20.1719C39.3281 20.1719 39.5469 19.8516 39.75 19.2109V18.8359C39.6719 18.3516 39.5703 18.1094 39.4453 18.1094H39.3047C39.0703 18.1094 38.8281 18.6016 38.5781 19.5859V19.6328Z" fill="#0F110C"/>
<path fill-rule="evenodd" clip-rule="evenodd" d="M0.0247354 0L0.0173077 1.59273C-0.0604862 17.6752 0.135239 36.6659 0.379024 36.7145C0.413213 36.7214 2.06867 36.7388 4.05959 36.7532C9.94365 36.7963 17.843 36.9184 18.6942 36.9803C19.4637 37.0364 20.4404 37.0503 21.1098 37.0156C21.2298 37.0094 22.1443 37.019 23.4375 37.0375V36.8828C23.4375 34.4766 23.3516 30.2812 23.1797 24.2969C22.9766 21.6406 22.875 19.6016 22.875 18.1797V17.6875C22.875 16.8906 23.1172 16.4922 23.6016 16.4922H23.9297C24.2109 16.6641 24.3516 16.8828 24.3516 17.1484C24.8516 16.6641 25.2188 16.4219 25.4531 16.4219L25.8516 16.3281C27.4297 16.3281 28.7734 17.5859 29.8828 20.1016L30.2109 21.6484C30.2109 23.5391 28.9766 24.6484 26.5078 24.9766H26.3438C25.7812 24.9766 25.2734 24.8281 24.8203 24.5312H24.5859C24.8037 30.5427 24.9203 34.719 24.9357 37.0601C27.7529 37.1047 31.3759 37.1715 33.0989 37.2155C34.2485 37.2449 36.501 37.2984 38.111 37.3341C39.7212 37.3698 41.9119 37.4208 42.9867 37.448C44.0622 37.4744 46.1671 37.5209 47.6799 37.5506C49.1932 37.5804 50.6277 37.6541 50.8785 37.7136C51.126 37.7724 51.423 37.782 51.5289 37.7352C51.6366 37.6872 51.9313 37.6578 52.1881 37.6697C52.4442 37.6816 53.4048 37.7255 54.3246 37.7664C54.9493 37.7946 55.6603 37.8235 56.4109 37.8517C55.86 37.4379 55.361 36.7712 54.9141 35.8516L54.0938 33.3438C54.2344 32.9375 54.4531 32.7344 54.75 32.7344H54.9609C55.2578 32.7344 55.6797 33.6719 56.2266 35.5469C56.7734 36.4688 57.2891 36.9297 57.7734 36.9297C59.1016 36.9297 59.8906 34.0547 60.1406 28.3047V26.8281L60.0469 24.3906L59.0156 24.625C57.5625 24.625 56.7266 23.1953 56.5078 20.3359L56.4375 17.3125C56.5781 16.9688 56.8281 16.7969 57.1875 16.7969C57.6719 16.7969 57.9141 17.5312 57.9141 19V20.4297C57.9141 22.2891 58.3125 23.2188 59.1094 23.2188H59.1797C59.7266 22.6719 60 21.9375 60 21.0156V18.2734C60 17.7109 60.3438 17.3203 61.0312 17.1016H61.3125C61.6562 17.3672 61.8281 17.5859 61.8281 17.7578L61.4062 21.1562L61.4766 27.0391V28.1641C61.4766 33.5118 60.6235 36.7698 58.9173 37.9381C59.6691 37.9618 60.4113 37.9831 61.1027 38.0008C61.9165 38.0216 63.0515 38.0707 63.6115 38.1087C64.1753 38.1481 65.4645 38.2095 66.4909 38.2467C69.0302 38.3393 69.9637 38.3821 70.9946 38.4539C71.4833 38.4878 72.503 38.5443 73.273 38.5804C74.0427 38.6161 74.7934 38.6663 74.9495 38.692C75.4166 38.7701 78.8783 38.9952 80.0106 39.0216C80.7628 39.0387 81.1619 39.0979 81.3507 39.2199C81.583 39.3691 81.6788 39.372 82.0319 39.2411C82.2623 39.1563 82.4864 39.1232 82.5414 39.1659C82.5949 39.2076 83.0189 39.2541 83.4879 39.2701C85.1428 39.3267 88.2849 39.6436 88.416 39.7671C88.4699 39.8181 89.0355 39.8906 89.6814 39.9297L90.8494 40L90.845 39.1488C90.8424 38.6399 90.8015 38.3036 90.7428 38.311C90.4689 38.3468 90.227 38.2843 90.2753 38.1901C90.363 38.0164 90.1255 37.9093 90.0352 38.0819C89.9787 38.1901 89.9352 38.1961 89.8828 38.1035C89.7929 37.9435 89.4871 37.9517 89.4871 38.1143C89.4871 38.1942 89.279 38.2422 88.9512 38.2389C88.5357 38.2348 88.3573 38.1768 88.1511 37.9792C87.8586 37.7002 87.4695 37.5399 87.3721 37.6589C87.3417 37.6965 87.2662 37.6704 87.1953 37.5983C87.0674 37.4684 86.6999 37.5618 86.6999 37.724C86.6999 37.785 86.6378 37.8326 86.5579 37.8326C86.4788 37.8326 86.423 37.7709 86.4312 37.6916C86.4732 37.2869 86.4256 37.2456 86.0005 37.3237C85.6824 37.3818 85.5898 37.3639 85.6069 37.2471C85.6218 37.1459 85.443 37.0577 85.0714 36.9818C84.7618 36.9184 84.4181 36.8008 84.2977 36.7165C84.1654 36.6242 83.9391 36.59 83.7183 36.6297C83.4437 36.6788 83.3552 36.655 83.3552 36.532C83.3552 36.3023 82.5206 36.348 82.363 36.586C82.285 36.7056 82.2482 36.714 82.2445 36.6133C82.2422 36.5305 82.1385 36.467 82.0059 36.467C81.8732 36.467 81.7777 36.406 81.7862 36.3261C81.826 35.9496 81.7714 35.8881 81.4265 35.9229C81.134 35.9521 81.0824 35.9977 81.0891 36.218C81.0991 36.5225 81.0902 36.525 80.7985 36.2929C80.6743 36.1937 80.5681 36.1644 80.5681 36.2289C80.5681 36.3658 80.1734 36.2507 80.0868 36.0875C80.0545 36.028 79.9133 35.9749 79.7717 35.9695C79.4446 35.9576 79.3874 35.778 79.6475 35.5771C79.7542 35.4953 79.8166 35.4809 79.785 35.5459C79.7531 35.6123 79.8118 35.72 79.9177 35.7899C80.0686 35.8881 80.108 35.8772 80.108 35.7358C80.108 35.6376 80.1507 35.5568 80.2005 35.5568C80.2525 35.5568 80.2938 35.6436 80.2938 35.7517C80.2938 35.8926 80.3206 35.9124 80.3908 35.8221C80.4618 35.7319 80.5551 35.7403 80.7312 35.8549C80.8646 35.9407 80.998 35.9675 81.0255 35.9144C81.0712 35.8266 81.5766 35.7329 81.6829 35.7924C81.7067 35.8053 81.8862 35.8291 82.072 35.843C82.4258 35.8698 82.5488 35.7537 82.2935 35.6336C82.214 35.5964 82.1519 35.5131 82.1519 35.4432C82.1519 35.3738 82.2582 35.4224 82.3909 35.5518C82.6477 35.8023 83.1148 35.8733 83.2148 35.6758C83.2482 35.6114 83.3114 35.5841 83.3552 35.6163C83.4006 35.6505 83.4593 35.6272 83.4924 35.5622C83.5251 35.4973 83.5894 35.4482 83.6425 35.4482C83.696 35.4482 83.7128 35.4923 83.6819 35.5513C83.6529 35.6094 83.6916 35.7304 83.7707 35.8276C83.8774 35.958 84.1208 35.9982 84.7488 35.9903C85.2093 35.9839 85.585 35.9501 85.585 35.9144C85.585 35.8232 86.7437 35.8504 86.8675 35.9442C87.0057 36.0488 87.2573 35.9035 87.2573 35.719C87.2573 35.6322 87.3004 35.5568 87.3502 35.5568C87.4008 35.5568 87.4431 35.654 87.4431 35.7736C87.4431 35.9412 87.5007 35.9819 87.6951 35.9521C87.8367 35.9308 87.9976 35.9655 88.0623 36.031C88.2354 36.2071 89.3629 36.2418 89.5488 36.0771C89.6528 35.9843 89.7966 35.966 89.9646 36.023C90.1237 36.0766 90.3087 36.0592 90.4514 35.9769C90.7168 35.8241 90.952 35.3326 90.7614 35.3306C90.6725 35.3296 90.6725 35.3088 90.7614 35.2413C90.8833 35.1491 90.9171 34.343 91.0096 29.358C91.0851 25.2614 91.1627 22.5784 91.2385 21.447C91.2824 20.7858 91.3166 20.0517 91.3147 19.7997C91.3084 19.0626 91.4463 16.7487 91.5031 16.6351C91.5329 16.5755 91.57 15.9089 91.5868 15.1505C91.6429 12.4953 91.738 10.9289 91.8632 10.6094C91.9524 10.3817 91.9628 10.1997 91.8978 10.0028C91.848 9.85098 91.825 9.5261 91.8495 9.29842C91.8736 9.06577 91.9171 8.48542 91.9465 8.00876L92 7.1417L91.23 6.99539C90.8045 6.91455 90.0884 6.83717 89.6279 6.82229C88.6773 6.79201 87.3012 6.61444 86.0272 6.35701C84.4697 6.04254 84.0721 5.99195 83.8774 6.08172C83.6648 6.17993 81.9345 6.03908 81.7625 5.9101C81.7041 5.86647 81.3604 5.81833 80.9977 5.80345C80.6364 5.78857 79.8334 5.6953 79.2231 5.59761C78.6126 5.4994 77.7523 5.38679 77.3208 5.3481C77.2248 5.33952 77.1311 5.33011 77.0429 5.32035C77.2023 6.04945 77.2635 7.30465 77.2266 9.08594C77.1797 12.0859 77.1562 14.2109 77.1562 15.4609H77.2031L78.6094 15.25C79.0625 15.3125 79.2891 15.5391 79.2891 15.9297C79.2891 16.4609 78.7969 16.7266 77.8125 16.7266L77.2031 16.9375L77.4141 24.7891C77.3516 25.3203 77.1094 25.5859 76.6875 25.5859C76.1875 25.5859 75.9375 25.2188 75.9375 24.4844V22.6328L75.8906 17.4062L75.7969 17.1719L74.7656 17.2422C74.3281 17.1484 74.1094 16.9062 74.1094 16.5156C74.1094 16.0312 74.6484 15.7891 75.7266 15.7891V15.6953C75.7266 13.6953 75.7578 10.2031 75.8203 5.21875C75.8203 5.18465 75.8222 5.15185 75.826 5.12037C75.3877 5.06949 74.6976 5.00067 73.6755 4.90466C73.383 4.87739 73.0895 4.81143 73.0211 4.75834C72.9129 4.67401 72.021 4.56437 70.5345 4.4518C69.2428 4.35407 66.8064 4.04604 66.7035 3.96718C66.6001 3.88831 65.3496 3.75539 63.8988 3.66759C62.704 3.59616 60.4059 3.34467 59.3683 3.17205C58.7663 3.07186 58.246 3.01779 58.2048 3.05053C58.1631 3.08327 57.7752 3.06095 57.3422 3.00043C56.599 2.89726 55.9438 2.84419 54.0686 2.73457C53.5906 2.70679 53.1499 2.61702 52.9842 2.51434C52.7723 2.3819 52.6467 2.368 52.4579 2.45481C52.3223 2.51681 51.9313 2.54162 51.5954 2.50888C51.255 2.47565 50.5028 2.39876 49.9097 2.33577C49.3214 2.27277 48.295 2.1944 47.632 2.16216C46.9679 2.12942 46.2143 2.05105 45.9597 1.98855C45.7033 1.92556 44.9106 1.84818 44.1941 1.81544C43.4784 1.78221 42.265 1.70533 41.495 1.64432C39.3719 1.47517 37.0188 1.30305 36.3459 1.26733C36.0134 1.24948 35.0983 1.17756 34.302 1.10514C33.5122 1.0342 32.1872 0.950876 31.3736 0.921115C30.5595 0.891353 29.7607 0.820428 29.6081 0.764377C29.4401 0.701878 29.2261 0.705844 29.0685 0.77479C28.9278 0.8358 28.6483 0.854654 28.4625 0.81547C27.7098 0.656742 26.7015 0.603662 21.7113 0.46329C18.88 0.383429 18.3057 0.339777 18.0749 0.187497C17.9321 0.0937495 17.7964 0.0897793 17.619 0.173111C17.4584 0.249498 16.4382 0.273311 14.8011 0.239582C12.4385 0.190972 5.45445 0.043649 5.13039 0.0362087C5.05257 0.0342243 4.27662 0.0347225 3.4095 0.0381945C2.54238 0.0411706 1.42303 0.0337385 0.927536 0.021834L0.0247354 0ZM90.0973 38.3672C90.2024 38.416 90.2076 38.4773 90.1237 38.6619C90.03 38.8676 90.0077 38.8732 89.9334 38.7106C89.8241 38.4718 89.9148 38.2828 90.0973 38.3672ZM80.7186 35.0692C80.7918 34.9789 80.9397 35.0796 80.9397 35.2205C80.9397 35.2815 80.8776 35.3291 80.7985 35.3291C80.6565 35.3291 80.6156 35.1952 80.7186 35.0692ZM2.40512 33.7359C2.43485 33.7359 2.4076 33.8123 2.34269 33.9095C2.21287 34.1044 2.06867 34.1332 2.06867 33.9636C2.06867 33.8986 2.10732 33.8743 2.15291 33.9095C2.19899 33.9447 2.26341 33.9199 2.29463 33.8549C2.32584 33.7905 2.37638 33.7359 2.40512 33.7359ZM86.6906 26.2262C86.7359 26.2262 86.7939 26.302 86.8236 26.3992C86.8534 26.497 86.8415 26.5729 86.7972 26.5729C86.7523 26.5729 86.6943 26.497 86.6638 26.3992C86.6341 26.302 86.646 26.2262 86.6906 26.2262ZM46.5651 26.1825C46.5651 25.9875 46.6208 25.9558 46.6966 26.1066C46.7278 26.1686 46.7115 26.2455 46.6583 26.2856C46.6059 26.3253 46.5651 26.2802 46.5651 26.1825ZM41.6901 25.8467C41.7704 25.8829 41.832 25.9543 41.832 26.0089C41.832 26.064 41.7704 26.0783 41.6901 26.0421C41.6106 26.0049 41.5485 25.934 41.5485 25.8789C41.5485 25.8244 41.6106 25.81 41.6901 25.8467ZM42.6277 25.2291C42.7165 25.3318 42.773 25.4523 42.7474 25.4836C42.7206 25.5168 42.6452 25.429 42.5794 25.2886C42.4679 25.0501 42.4709 25.0466 42.6277 25.2291ZM44.2915 25.0932C44.371 25.1755 44.4134 25.2633 44.3888 25.2941C44.3242 25.3735 44.1495 25.2073 44.1495 25.0664C44.1495 24.9915 44.203 25.002 44.2915 25.0932ZM89.5443 7.48299C89.577 7.52365 89.5811 7.6184 89.5532 7.70519C89.5246 7.79347 89.5008 7.76471 89.4956 7.63477C89.4908 7.51572 89.5135 7.44478 89.5443 7.48299ZM91.3002 7.33667C91.3207 7.33667 91.3608 7.38526 91.3935 7.45025C91.424 7.51074 91.3805 7.56431 91.3002 7.56431C91.2207 7.56431 91.1772 7.51074 91.2077 7.45025C91.2404 7.38526 91.2802 7.33667 91.3002 7.33667ZM63.5391 3.69531C64.0391 3.77344 64.2891 3.99219 64.2891 4.35156L64.125 5.71094V6.0625C64.375 11.8438 64.7266 15.6797 65.1797 17.5703L65.2266 17.6641H65.3203C65.7109 17.2734 66.2031 17.0156 66.7969 16.8906C68.5312 17.3906 69.3984 18.6562 69.3984 20.6875V21.2734C69.3203 23.6641 68.5703 25.1406 67.1484 25.7031L66.5859 25.7734H66.3516L66.2578 25.7031L66.0469 25.7734V26.1484C66.0469 26.4141 65.8984 26.6094 65.6016 26.7344H65.3203C64.8203 26.7344 64.5703 26.1953 64.5703 25.1172C64.4766 24.4609 64.2578 23.8359 63.9141 23.2422V23.0312L64.125 22.6562L63.9844 21.2031L64.0781 20.3828C63.1719 13.5234 62.7188 8.67969 62.7188 5.85156C62.7188 4.41406 62.9922 3.69531 63.5391 3.69531ZM15.4688 4.23438C15.7031 4.25 15.9219 4.44531 16.125 4.82031C16.0156 4.99219 15.9453 5.30469 15.9141 5.75781L15.8906 6.0625L16.0312 15.2969C15.9531 19.4844 16 22.5547 16.1719 24.5078L16.2188 24.6953C16.0781 24.9922 15.8516 25.1328 15.5391 25.1172C14.8359 25.0703 14.5547 24.1016 14.6953 22.2109C14.6016 21.1797 14.5547 16.4375 14.5547 7.98438C14.4609 7.46875 14.4375 6.78906 14.4844 5.94531V5.85156C14.5625 4.74219 14.8906 4.20312 15.4688 4.23438ZM10.4766 17.1484L11.8828 17.3828V17.3125C12.2266 17.3125 12.4922 17.5859 12.6797 18.1328L12.6094 19.6094V20.6406C12.6094 22.1562 12.8281 23.2891 13.2656 24.0391C13.1406 24.4297 12.8984 24.625 12.5391 24.625C12.0234 24.625 11.6484 24.0312 11.4141 22.8438L11.3672 22.4688H11.1562C10.5938 23.7969 9.79688 24.6797 8.76562 25.1172L8.41406 25.2109C7.07031 24.8359 6.39844 23.8516 6.39844 22.2578V22.1172C6.39844 20.1328 7.35938 18.5547 9.28125 17.3828L10.4766 17.1484ZM20.1328 4.82031C19.9297 4.44531 19.7109 4.25 19.4766 4.23438C18.8984 4.20312 18.5703 4.74219 18.4922 5.85156V5.94531C18.4453 6.78906 18.4688 7.46875 18.5625 7.98438C18.5625 16.4375 18.6094 21.1797 18.7031 22.2109C18.5625 24.1016 18.8438 25.0703 19.5469 25.1172C19.8594 25.1328 20.0859 24.9922 20.2266 24.6953L20.1797 24.5078C20.0078 22.5547 19.9609 19.4844 20.0391 15.2969L19.8984 6.0625L19.9219 5.75781C19.9531 5.30469 20.0234 4.99219 20.1328 4.82031ZM32.625 17.1016C32.4062 16.0859 32.0859 15.5781 31.6641 15.5781C31.2891 15.5781 31.0391 15.7656 30.9141 16.1406C31.4141 17.6406 31.6641 19.3906 31.6641 21.3906V24.1094C31.6641 24.7031 31.9141 25 32.4141 25C32.7578 25 32.9766 24.7578 33.0703 24.2734V23.1719C33.0703 19.5469 33.5312 17.6484 34.4531 17.4766H34.6875L35.5781 17.7578C35.9219 17.7578 36.1641 17.5391 36.3047 17.1016C36.3047 16.6016 35.7422 16.25 34.6172 16.0469C33.9297 16.0469 33.2891 16.3984 32.6953 17.1016H32.625ZM39.4453 16.6328C40.3203 16.6328 40.9141 17.4219 41.2266 19C40.8203 20.7656 39.9844 21.6484 38.7188 21.6484H38.625V21.7188C38.875 23.1406 39.5391 23.8516 40.6172 23.8516C41.4453 23.8516 42.1172 23.1406 42.6328 21.7188L43.1484 21.5078C43.4922 21.5078 43.7109 21.7734 43.8047 22.3047C43.8047 23.2734 43.0469 24.1875 41.5312 25.0469L40.4062 25.2578C39.0625 25.2578 38.0547 24.2969 37.3828 22.375C37.1953 21.6094 37.1016 20.9766 37.1016 20.4766V20.1719C37.1016 18.5781 37.7656 17.4219 39.0938 16.7031L39.4453 16.6328ZM47.625 9.08594C47.6875 6.07031 47.4688 4.5625 46.9688 4.5625C46.4688 4.60938 46.2188 4.82812 46.2188 5.21875C46.1562 10.2031 46.125 13.6953 46.125 15.6953V15.7891C45.0469 15.7891 44.5078 16.0312 44.5078 16.5156C44.5078 16.9062 44.7266 17.1484 45.1641 17.2422L46.1953 17.1719L46.2891 17.4062L46.3359 22.6328V24.4844C46.3359 25.2188 46.5859 25.5859 47.0859 25.5859C47.5078 25.5859 47.75 25.3203 47.8125 24.7891L47.6016 16.9375L48.2109 16.7266C49.1953 16.7266 49.6875 16.4609 49.6875 15.9297C49.6875 15.5391 49.4609 15.3125 49.0078 15.25L47.6016 15.4609H47.5547C47.5547 14.2109 47.5781 12.0859 47.625 9.08594ZM52.9688 4.5625C53.4688 4.5625 53.6875 6.07031 53.625 9.08594C53.5781 12.0859 53.5547 14.2109 53.5547 15.4609H53.6016L55.0078 15.25C55.4609 15.3125 55.6875 15.5391 55.6875 15.9297C55.6875 16.4609 55.1953 16.7266 54.2109 16.7266L53.6016 16.9375L53.8125 24.7891C53.75 25.3203 53.5078 25.5859 53.0859 25.5859C52.5859 25.5859 52.3359 25.2188 52.3359 24.4844V22.6328L52.2891 17.4062L52.1953 17.1719L51.1641 17.2422C50.7266 17.1484 50.5078 16.9062 50.5078 16.5156C50.5078 16.0312 51.0469 15.7891 52.125 15.7891V15.6953C52.125 13.6953 52.1562 10.2031 52.2188 5.21875C52.2188 4.82812 52.4688 4.60938 52.9688 4.5625ZM72.7734 13.8906C72.6797 13.3594 72.4297 13.0938 72.0234 13.0938C71.7109 13.0938 71.4922 13.3359 71.3672 13.8203C71.3672 14.3516 71.5859 14.6172 72.0234 14.6172H72.2578C72.6016 14.3828 72.7734 14.1406 72.7734 13.8906ZM72.6328 18.625C72.8672 17.125 72.7188 16.3359 72.1875 16.2578C71.75 16.2422 71.5156 16.3516 71.4844 16.5859C71.1875 18.3359 71.0547 20.5078 71.0859 23.1016C71.0078 24.5859 71.1875 25.3594 71.625 25.4219C72 25.4844 72.3047 25.2891 72.5391 24.8359C72.4141 21.9297 72.4453 19.8594 72.6328 18.625ZM84.8906 17.125C84.7188 16.4375 84.2266 16.0938 83.4141 16.0938L82.5938 16.2578C81.0781 17.1172 80.3203 18.2266 80.3203 19.5859C80.5859 21.0859 81.2969 21.8359 82.4531 21.8359C82.9375 21.8359 83.375 21.7656 83.7656 21.625L83.8594 21.7188C83.8594 22.7031 83.2891 23.4141 82.1484 23.8516H81.7734L81.0469 23.3359C80.6719 23.3359 80.4062 23.5312 80.25 23.9219C80.25 24.5781 80.7891 25.0234 81.8672 25.2578C82.4609 25.2578 83.0469 25.0391 83.625 24.6016C84.8594 23.4453 85.4766 22.3594 85.4766 21.3438C85.4766 20.6562 85.0781 20.2656 84.2812 20.1719L82.6641 20.4766H82.4531C82.0469 20.4766 81.8047 20.2188 81.7266 19.7031V19.4922C81.7266 18.6172 82.2422 17.9609 83.2734 17.5234H83.4844C83.6406 17.5234 83.8203 17.5938 84.0234 17.7344H84.2344C84.6719 17.6562 84.8906 17.4531 84.8906 17.125Z" fill="#0F110C"/>
<path d="M24.9609 20.2656C24.6797 22.4688 25.0938 23.5703 26.2031 23.5703H26.5781C27.8438 23.5703 28.5859 22.9766 28.8047 21.7891V21.5781C28.8047 20.5312 28.2578 19.4531 27.1641 18.3438C26.7109 17.9375 26.2969 17.7344 25.9219 17.7344C25.4062 17.7031 25.0859 18.5469 24.9609 20.2656Z" fill="#0F110C"/>
</svg>
